<?xml version="1.0" standalone="no"?>
<!DOCTYPE svg PUBLIC "-//W3C//DTD SVG 20010904//EN"
 "http://www.w3.org/TR/2001/REC-SVG-20010904/DTD/svg10.dtd">
<svg version="1.0" xmlns="http://www.w3.org/2000/svg"
 width="490.000000pt" height="490.000000pt" viewBox="0 0 490.000000 490.000000"
 preserveAspectRatio="xMidYMid meet">

<g transform="translate(0.000000,490.000000) scale(0.100000,-0.100000)"
fill="#000000" stroke="none">
<path d="M2252 4300 c-40 -5 -76 -11 -80 -15 -4 -3 18 -3 48 2 30 4 147 8 260
8 121 0 180 2 145 6 -80 9 -282 8 -373 -1z"/>
<path d="M2738 4283 c7 -3 16 -2 19 1 4 3 -2 6 -13 5 -11 0 -14 -3 -6 -6z"/>
<path d="M2093 4273 c9 -2 23 -2 30 0 6 3 -1 5 -18 5 -16 0 -22 -2 -12 -5z"/>
<path d="M2795 4270 c17 -4 39 -8 50 -8 16 0 15 2 -5 8 -14 4 -36 8 -50 8 -22
0 -22 -1 5 -8z"/>
<path d="M2048 4263 c7 -3 16 -2 19 1 4 3 -2 6 -13 5 -11 0 -14 -3 -6 -6z"/>
<path d="M1965 4244 c-22 -9 -49 -16 -60 -15 -18 0 -19 -1 -2 -10 9 -6 14 -15
11 -21 -4 -7 -2 -8 5 -4 6 4 9 11 6 16 -2 4 10 13 28 20 55 20 72 29 62 29 -5
0 -28 -7 -50 -15z"/>
<path d="M1805 4195 c-39 -17 -21 -18 25 0 19 7 28 14 20 14 -8 0 -28 -6 -45
-14z"/>
<path d="M3060 4202 c8 -5 26 -13 40 -16 17 -5 20 -4 10 2 -8 5 -26 13 -40 16
-17 5 -20 4 -10 -2z"/>
<path d="M1958 4193 c7 -3 16 -2 19 1 4 3 -2 6 -13 5 -11 0 -14 -3 -6 -6z"/>
<path d="M1742 4171 c-11 -7 -11 -9 0 -14 9 -3 15 1 15 9 0 8 -1 14 -1 14 -1
0 -7 -4 -14 -9z"/>
<path d="M3140 4170 c8 -5 20 -10 25 -10 6 0 3 5 -5 10 -8 5 -19 10 -25 10 -5
0 -3 -5 5 -10z"/>
<path d="M1690 4150 c-8 -5 -10 -10 -5 -10 6 0 17 5 25 10 8 5 11 10 5 10 -5
0 -17 -5 -25 -10z"/>
<path d="M3194 4130 c1 -25 11 -33 11 -9 0 16 9 15 53 -5 24 -11 38 -22 33
-25 -5 -4 7 -17 27 -29 l37 -23 -27 25 c-15 13 -23 26 -17 28 5 2 -19 18 -54
35 l-65 32 2 -29z"/>
<path d="M1535 4070 c-16 -11 -24 -20 -17 -20 7 0 10 -4 7 -10 -4 -6 1 -7 11
-3 11 4 13 8 6 11 -8 2 -4 11 10 23 30 24 21 24 -17 -1z"/>
<path d="M3344 4071 c10 -11 23 -19 30 -18 6 1 10 -3 9 -8 -1 -6 7 -11 18 -11
19 0 18 1 -3 17 -12 10 -26 15 -30 13 -4 -3 -8 -1 -8 4 0 6 -8 13 -17 16 -15
6 -15 5 1 -13z"/>
<path d="M1474 4034 c-18 -14 -18 -15 4 -4 12 6 22 13 22 15 0 8 -5 6 -26 -11z"/>
<path d="M3285 4040 c-3 -6 1 -7 9 -4 18 7 21 14 7 14 -6 0 -13 -4 -16 -10z"/>
<path d="M3455 4003 c1 -10 -2 -23 -7 -30 -17 -21 13 -26 34 -5 16 16 17 21 7
27 -8 5 -11 5 -7 0 9 -9 -9 -35 -24 -35 -5 0 -6 6 -1 13 11 18 12 36 3 42 -5
3 -7 -3 -5 -12z"/>
<path d="M1400 3985 c-19 -14 -30 -25 -24 -25 10 0 73 49 63 50 -3 0 -20 -11
-39 -25z"/>
<path d="M3504 3968 c-4 -7 -3 -10 1 -5 5 4 24 -7 42 -25 18 -17 35 -29 38
-26 3 3 -12 20 -34 37 -29 23 -41 28 -47 19z"/>
<path d="M1331 3936 c-9 -10 -9 -16 -1 -21 16 -10 31 7 21 23 -6 10 -10 10
-20 -2z"/>
<path d="M1260 3880 c-37 -32 -43 -41 -32 -52 11 -11 12 -10 6 6 -6 15 -3 17
14 12 15 -5 24 -1 33 16 7 13 13 25 13 28 1 3 10 4 21 2 11 -1 16 1 10 6 -5 4
-12 10 -15 14 -3 3 -25 -11 -50 -32z m14 -15 c-7 -16 -24 -21 -24 -6 0 8 7 13
27 20 1 1 0 -6 -3 -14z"/>
<path d="M3607 3898 c7 -8 9 -19 5 -24 -4 -5 -3 -6 2 -2 5 4 15 3 23 -4 7 -6
16 -9 18 -6 3 2 -10 15 -28 28 -17 13 -26 17 -20 8z"/>
<path d="M3695 3820 c10 -11 20 -20 23 -20 3 0 -3 9 -13 20 -10 11 -20 20 -23
20 -3 0 3 -9 13 -20z"/>
<path d="M1172 3803 c-7 -2 -17 -14 -23 -26 -12 -22 -11 -22 13 1 13 12 28 19
33 15 4 -5 5 -2 1 5 -4 6 -8 12 -9 11 -1 0 -8 -3 -15 -6z"/>
<path d="M1097 3730 c-9 -11 -12 -20 -7 -20 19 0 25 5 22 19 -2 7 1 10 7 6 6
-3 11 -1 11 4 0 17 -14 13 -33 -9z"/>
<path d="M3775 3740 c-10 -16 14 -40 32 -33 11 5 12 7 2 14 -7 4 -17 5 -23 2
-5 -4 -7 1 -3 10 7 19 2 23 -8 7z"/>
<path d="M2308 3703 c84 -2 219 -2 300 0 81 1 12 3 -153 3 -165 0 -231 -2
-147 -3z"/>
<path d="M1062 3680 c-7 -11 -8 -20 -3 -20 9 0 24 30 18 36 -1 2 -8 -6 -15
-16z"/>
<path d="M3860 3655 c13 -14 26 -25 28 -25 3 0 -5 11 -18 25 -13 14 -26 25
-28 25 -3 0 5 -11 18 -25z"/>
<path d="M2100 3245 c0 -234 0 -428 0 -432 0 -5 -199 -10 -442 -13 l-443 -5
448 -3 447 -2 0 440 c0 242 -2 440 -5 440 -3 0 -5 -191 -5 -425z"/>
<path d="M1016 3635 c-9 -14 -15 -25 -14 -26 29 -8 34 -4 33 22 0 16 -1 29 -1
29 -1 0 -9 -11 -18 -25z"/>
<path d="M2792 3227 l-2 -437 455 0 c250 1 455 4 455 8 0 4 -202 6 -450 4
l-450 -3 -3 433 -2 433 -3 -438z"/>
<path d="M3890 3612 c0 -12 19 -26 26 -19 2 2 -2 10 -11 17 -9 8 -15 8 -15 2z"/>
<path d="M3865 3600 c3 -5 8 -10 11 -10 2 0 4 5 4 10 0 6 -5 10 -11 10 -5 0
-7 -4 -4 -10z"/>
<path d="M962 3568 c-7 -7 -12 -19 -11 -27 0 -11 4 -8 11 6 10 21 12 22 25 5
13 -15 13 -15 3 6 -13 26 -12 26 -28 10z"/>
<path d="M3931 3560 c7 -14 12 -31 10 -39 -1 -7 2 -10 8 -6 15 9 14 16 -10 45
l-20 25 12 -25z"/>
<path d="M924 3518 c-37 -63 -37 -63 -11 -33 25 28 33 45 23 45 -3 0 -8 -6
-12 -12z"/>
<path d="M3973 3495 c0 -8 2 -13 5 -10 2 2 13 -6 24 -18 16 -18 16 -16 -2 11
-24 36 -27 38 -27 17z"/>
<path d="M3926 3492 c-3 -5 1 -9 9 -9 8 0 12 4 9 9 -3 4 -7 8 -9 8 -2 0 -6 -4
-9 -8z"/>
<path d="M852 3404 c-12 -19 -18 -34 -13 -34 16 0 21 -31 10 -53 -9 -18 -9
-20 1 -10 14 13 22 75 8 67 -13 -8 -9 10 8 34 9 13 14 25 12 27 -2 2 -13 -12
-26 -31z"/>
<path d="M4036 3402 c-2 -4 9 -25 25 -46 16 -22 29 -35 29 -29 0 5 -11 23 -24
38 -14 16 -23 32 -20 37 3 4 3 8 0 8 -3 0 -7 -3 -10 -8z"/>
<path d="M811 3333 c-10 -26 -10 -27 4 -9 8 11 15 23 15 28 0 15 -7 8 -19 -19z"/>
<path d="M781 3273 c-10 -26 -10 -27 4 -9 8 11 15 23 15 28 0 15 -7 8 -19 -19z"/>
<path d="M4116 3265 c4 -11 9 -30 11 -42 3 -12 11 -28 19 -34 19 -16 18 -10
-11 47 -15 27 -23 40 -19 29z"/>
<path d="M732 3168 c-10 -30 -10 -31 3 -14 13 17 21 46 12 46 -1 0 -8 -15 -15
-32z"/>
<path d="M4166 3150 c4 -14 15 -43 25 -65 11 -22 16 -29 13 -15 -4 14 -15 43
-25 65 -11 22 -16 29 -13 15z"/>
<path d="M703 3089 c-7 -18 -11 -35 -8 -37 6 -6 27 48 23 60 -2 5 -9 -6 -15
-23z"/>
<path d="M666 2986 c-4 -16 -5 -31 -1 -34 3 -3 5 3 5 14 0 16 2 17 10 4 11
-18 12 -3 1 25 -7 17 -9 16 -15 -9z"/>
<path d="M4216 2995 c-3 -8 -1 -15 4 -15 6 0 10 7 10 15 0 8 -2 15 -4 15 -2 0
-6 -7 -10 -15z"/>
<path d="M651 2924 c0 -11 3 -14 6 -6 3 7 2 16 -1 19 -3 4 -6 -2 -5 -13z"/>
<path d="M4240 2924 c0 -10 5 -26 10 -34 8 -11 9 -7 4 15 -8 37 -14 45 -14 19z"/>
<path d="M626 2824 c-4 -20 -5 -38 -3 -40 3 -3 8 11 11 32 4 20 5 38 3 40 -3
3 -8 -11 -11 -32z"/>
<path d="M4261 2844 c0 -11 3 -14 6 -6 3 7 2 16 -1 19 -3 4 -6 -2 -5 -13z"/>
<path d="M4272 2790 c0 -14 2 -19 5 -12 2 6 2 18 0 25 -3 6 -5 1 -5 -13z"/>
<path d="M3701 2764 c0 -11 3 -14 6 -6 3 7 2 16 -1 19 -3 4 -6 -2 -5 -13z"/>
<path d="M611 2740 c-1 -14 -4 -36 -6 -50 l-6 -25 11 25 c6 13 9 36 7 50 l-4
25 -2 -25z"/>
<path d="M4282 2735 c0 -16 2 -22 5 -12 2 9 2 23 0 30 -3 6 -5 -1 -5 -18z"/>
<path d="M4293 2655 c0 -27 2 -38 4 -22 2 15 2 37 0 50 -2 12 -4 0 -4 -28z"/>
<path d="M596 2614 c-3 -26 -5 -106 -4 -178 l1 -131 7 175 c4 96 6 176 5 178
-1 1 -5 -18 -9 -44z"/>
<path d="M4303 2545 c0 -27 2 -38 4 -22 2 15 2 37 0 50 -2 12 -4 0 -4 -28z"/>
<path d="M4303 2370 c0 -30 2 -43 4 -27 2 15 2 39 0 55 -2 15 -4 2 -4 -28z"/>
<path d="M602 2255 c0 -16 2 -22 5 -12 2 9 2 23 0 30 -3 6 -5 -1 -5 -18z"/>
<path d="M4292 2240 c0 -14 2 -19 5 -12 2 6 2 18 0 25 -3 6 -5 1 -5 -13z"/>
<path d="M612 2160 c0 -14 2 -19 5 -12 2 6 2 18 0 25 -3 6 -5 1 -5 -13z"/>
<path d="M3702 2150 c0 -19 2 -27 5 -17 2 9 2 25 0 35 -3 9 -5 1 -5 -18z"/>
<path d="M4282 2160 c0 -14 2 -19 5 -12 2 6 2 18 0 25 -3 6 -5 1 -5 -13z"/>
<path d="M621 2109 c0 -13 4 -33 9 -44 7 -14 8 -8 3 20 -7 46 -13 59 -12 24z"/>
<path d="M4271 2104 c0 -11 3 -14 6 -6 3 7 2 16 -1 19 -3 4 -6 -2 -5 -13z"/>
<path d="M1448 2103 c116 -2 308 -2 425 0 116 1 21 2 -213 2 -234 0 -329 -1
-212 -2z"/>
<path d="M2095 1654 c0 -250 3 -454 7 -454 10 0 10 897 1 903 -5 3 -8 -199 -8
-449z"/>
<path d="M2790 1655 l0 -455 -315 -3 -315 -2 317 0 318 0 3 452 2 453 443 3
442 2 -447 3 -448 2 0 -455z"/>
<path d="M4261 2064 c0 -11 3 -14 6 -6 3 7 2 16 -1 19 -3 4 -6 -2 -5 -13z"/>
<path d="M4241 1974 c0 -11 3 -14 6 -6 3 7 2 16 -1 19 -3 4 -6 -2 -5 -13z"/>
<path d="M675 1909 c-4 -6 -5 -12 -2 -15 2 -3 7 2 10 11 7 17 1 20 -8 4z"/>
<path d="M4221 1913 c-1 -6 -4 -20 -7 -30 -5 -17 -5 -17 6 0 6 10 9 23 6 30
-3 9 -5 9 -5 0z"/>
<path d="M680 1870 c0 -5 5 -10 11 -10 5 0 7 5 4 10 -3 6 -8 10 -11 10 -2 0
-4 -4 -4 -10z"/>
<path d="M4190 1865 c0 -5 5 -17 10 -25 5 -8 10 -10 10 -5 0 6 -5 17 -10 25
-5 8 -10 11 -10 5z"/>
<path d="M696 1830 c3 -14 11 -32 16 -40 6 -10 7 -7 2 10 -3 14 -11 32 -16 40
-6 10 -7 7 -2 -10z"/>
<path d="M4178 1785 c-3 -11 -9 -29 -13 -40 -3 -11 1 -7 10 8 9 16 15 33 12
40 -2 6 -6 3 -9 -8z"/>
<path d="M720 1765 c0 -5 5 -17 10 -25 5 -8 10 -10 10 -5 0 6 -5 17 -10 25 -5
8 -10 11 -10 5z"/>
<path d="M740 1716 c0 -11 81 -168 85 -164 2 2 -14 39 -36 83 -40 80 -49 94
-49 81z"/>
<path d="M4100 1680 c6 -11 13 -20 16 -20 2 0 0 9 -6 20 -6 11 -13 20 -16 20
-2 0 0 -9 6 -20z"/>
<path d="M4106 1615 c-3 -9 -9 -14 -13 -12 -5 3 -9 -6 -10 -20 -1 -24 0 -24
19 7 10 18 17 34 15 37 -3 2 -7 -3 -11 -12z"/>
<path d="M846 1551 c-20 -22 -13 -49 8 -32 7 6 15 9 18 6 2 -3 5 2 5 10 0 11
-4 12 -14 4 -16 -14 -17 3 -1 19 7 7 10 12 7 12 -3 0 -14 -9 -23 -19z"/>
<path d="M4053 1534 c3 -4 2 -15 -4 -26 -9 -16 -13 -17 -27 -6 -15 12 -16 11
-4 -4 11 -14 11 -21 -3 -42 -10 -14 -15 -26 -12 -26 6 0 67 94 67 103 0 4 -5
7 -12 7 -6 0 -8 -3 -5 -6z"/>
<path d="M870 1474 c0 -5 6 -18 13 -29 12 -15 15 -16 22 -4 5 8 4 10 0 6 -5
-4 -15 3 -22 15 -7 13 -12 18 -13 12z"/>
<path d="M934 1452 c9 -16 -12 -44 -27 -35 -6 4 -7 1 -2 -6 6 -10 13 -8 28 8
18 17 19 23 8 33 -11 11 -13 10 -7 0z"/>
<path d="M927 1394 c-4 -7 8 -28 28 -50 19 -21 35 -33 35 -26 0 6 -9 16 -21
22 -12 7 -18 18 -15 26 3 8 2 12 -3 9 -5 -3 -11 3 -13 12 -2 12 -6 14 -11 7z"/>
<path d="M1010 1273 c13 -18 25 -33 27 -33 8 0 -17 38 -33 51 -11 9 -9 2 6
-18z"/>
<path d="M3859 1279 c-8 -15 -8 -19 0 -15 6 4 11 3 11 -1 0 -15 -96 -104 -103
-97 -4 4 -7 2 -7 -4 0 -7 5 -12 10 -12 11 0 103 95 129 133 l15 22 -24 -20
c-20 -17 -23 -18 -17 -2 9 24 0 21 -14 -4z"/>
<path d="M1060 1217 c0 -2 6 -10 14 -16 11 -9 16 -9 22 1 4 7 4 10 -1 6 -4 -4
-14 -3 -22 3 -7 6 -13 9 -13 6z"/>
<path d="M3732 1130 c2 -19 -4 -23 -13 -10 -9 13 -10 13 -6 -1 3 -9 0 -23 -6
-30 -7 -8 2 -3 18 11 17 14 33 27 37 30 4 3 -1 6 -11 6 -11 0 -19 -3 -19 -6z"/>
<path d="M1155 1120 c-7 -12 -7 -12 22 -15 12 -1 20 1 17 6 -2 4 -12 5 -21 2
-11 -4 -14 -3 -9 5 4 7 5 12 2 12 -3 0 -8 -4 -11 -10z"/>
<path d="M1240 1035 c13 -14 26 -25 28 -25 3 0 -5 11 -18 25 -13 14 -26 25
-28 25 -3 0 5 -11 18 -25z"/>
<path d="M3605 1050 c-3 -6 1 -13 10 -16 13 -5 13 -9 3 -22 -11 -13 -10 -14 9
-4 27 15 41 34 17 25 -12 -4 -15 -3 -10 5 5 8 1 10 -10 5 -12 -4 -15 -3 -10 5
4 7 5 12 2 12 -3 0 -8 -5 -11 -10z"/>
<path d="M1301 987 c32 -25 71 -48 62 -36 -7 9 -10 19 -6 23 4 4 0 4 -9 1 -9
-4 -19 -2 -23 4 -3 6 -11 11 -17 11 -6 0 -9 -1 -7 -3z"/>
<path d="M3543 955 c0 -8 4 -12 9 -9 5 3 6 10 3 15 -9 13 -12 11 -12 -6z"/>
<path d="M1406 952 c-2 -4 4 -8 14 -8 10 0 16 4 14 8 -3 4 -9 8 -14 8 -5 0
-11 -4 -14 -8z"/>
<path d="M1406 921 c-3 -5 7 -17 22 -27 20 -13 24 -13 15 -2 -7 8 -10 18 -6
22 4 4 -1 4 -11 0 -14 -5 -17 -4 -12 4 4 7 5 12 2 12 -3 0 -7 -4 -10 -9z"/>
<path d="M3470 907 c-14 -12 -37 -30 -50 -40 -24 -17 -24 -17 8 0 18 10 43 28
54 41 27 28 21 28 -12 -1z"/>
<path d="M1465 881 c-5 -10 19 -28 40 -30 6 0 18 -7 27 -15 17 -15 88 -54 78
-43 -18 19 -112 77 -125 77 -9 0 -13 5 -10 10 3 6 4 10 1 10 -3 0 -7 -4 -11
-9z"/>
<path d="M3369 878 c-10 -32 2 -61 15 -39 4 5 2 12 -4 16 -6 4 -8 11 -5 16 4
5 4 9 1 9 -3 0 -6 -1 -7 -2z"/>
<path d="M3304 804 c-18 -14 -18 -14 6 -3 31 14 36 19 24 19 -6 0 -19 -7 -30
-16z"/>
<path d="M1632 791 c-11 -7 -11 -9 0 -14 9 -3 15 1 15 9 0 8 -1 14 -1 14 -1 0
-7 -4 -14 -9z"/>
<path d="M3228 774 c-16 -8 -28 -17 -28 -19 0 -4 72 24 79 31 11 10 -27 2 -51
-12z"/>
<path d="M1740 730 c8 -5 20 -10 25 -10 6 0 3 5 -5 10 -8 5 -19 10 -25 10 -5
0 -3 -5 5 -10z"/>
<path d="M3110 719 c-25 -10 -50 -16 -57 -14 -7 2 -15 0 -18 -5 -9 -14 51 -3
97 19 54 24 38 25 -22 0z"/>
<path d="M1780 716 c0 -3 26 -13 58 -22 31 -9 64 -19 72 -21 8 -3 6 1 -4 8
-11 6 -33 15 -50 19 -17 4 -41 10 -53 14 -13 4 -23 5 -23 2z"/>
<path d="M2985 700 c-3 -6 1 -7 9 -4 18 7 21 14 7 14 -6 0 -13 -4 -16 -10z"/>
<path d="M2995 680 c-3 -5 -2 -10 4 -10 5 0 13 5 16 10 3 6 2 10 -4 10 -5 0
-13 -4 -16 -10z"/>
<path d="M1980 650 c34 -11 60 -11 35 0 -11 5 -29 8 -40 8 -16 0 -15 -2 5 -8z"/>
<path d="M2890 650 c-11 -8 -7 -9 15 -4 37 8 45 14 19 14 -10 0 -26 -5 -34
-10z"/>
<path d="M2055 640 c-19 -8 -19 -9 2 -9 12 -1 25 4 28 9 7 12 -2 12 -30 0z"/>
<path d="M2828 633 c7 -3 16 -2 19 1 4 3 -2 6 -13 5 -11 0 -14 -3 -6 -6z"/>
<path d="M2091 626 c2 -2 20 -6 39 -10 25 -4 31 -3 20 4 -14 9 -69 15 -59 6z"/>
<path d="M2788 623 c7 -3 16 -2 19 1 4 3 -2 6 -13 5 -11 0 -14 -3 -6 -6z"/>
<path d="M2188 613 c7 -3 16 -2 19 1 4 3 -2 6 -13 5 -11 0 -14 -3 -6 -6z"/>
<path d="M2728 613 c6 -2 18 -2 25 0 6 3 1 5 -13 5 -14 0 -19 -2 -12 -5z"/>
<path d="M2243 603 c15 -2 37 -2 50 0 12 2 0 4 -28 4 -27 0 -38 -2 -22 -4z"/>
<path d="M2648 603 c6 -2 18 -2 25 0 6 3 1 5 -13 5 -14 0 -19 -2 -12 -5z"/>
<path d="M2383 593 c37 -2 97 -2 135 0 37 2 6 3 -68 3 -74 0 -105 -1 -67 -3z"/>
</g>
</svg>
